<?xml version="1.0" standalone="no"?>
<!DOCTYPE svg PUBLIC "-//W3C//DTD SVG 20010904//EN"
 "http://www.w3.org/TR/2001/REC-SVG-20010904/DTD/svg10.dtd">
<svg version="1.0" xmlns="http://www.w3.org/2000/svg"
 width="140.000000pt" height="140.000000pt" viewBox="0 0 140.000000 140.000000"
 preserveAspectRatio="xMidYMid meet">
<metadata>
Created by potrace 1.16, written by Peter Selinger 2001-2019
</metadata>
<g transform="translate(0.000000,140.000000) scale(0.100000,-0.100000)"
fill="#000000" stroke="none">
<path d="M1023 1340 c-50 -5 -97 -12 -105 -16 -7 -4 -27 -7 -45 -5 -49 4 -244
-29 -272 -46 -19 -12 -22 -20 -17 -46 l6 -31 -22 21 c-48 45 -155 35 -253 -22
-28 -16 -45 -21 -57 -14 -11 6 -53 -4 -137 -33 -106 -36 -121 -44 -121 -63 0
-22 2 -22 125 21 l125 44 0 -26 0 -25 38 30 c73 59 182 92 235 72 15 -6 33
-25 42 -43 11 -26 125 -571 125 -600 0 -5 -56 -8 -124 -8 -91 0 -126 -3 -129
-12 -4 -14 -56 195 -81 331 -9 47 -18 86 -20 88 -1 2 -17 0 -35 -3 -30 -6 -31
-8 -25 -43 11 -66 65 -346 70 -366 4 -14 3 -16 -4 -7 -7 10 -40 12 -135 10
l-126 -3 -20 75 c-26 98 -41 185 -51 290 -7 79 -7 74 -9 -70 -1 -133 2 -169
23 -255 27 -111 74 -255 103 -312 l18 -38 85 0 c47 0 119 3 160 8 l75 7 24
-75 c30 -92 69 -137 135 -154 110 -27 469 65 699 180 l77 39 0 318 0 317 -29
116 c-40 156 -89 279 -129 323 -36 40 -38 40 -219 26z m205 -107 c63 -164 109
-374 119 -544 l6 -105 -54 -21 c-41 -15 -69 -19 -113 -15 -38 3 -61 1 -65 -7
-4 -6 -18 51 -32 126 l-24 138 -30 -3 c-16 -2 -32 -6 -34 -8 -2 -2 4 -57 13
-121 9 -65 16 -120 16 -123 0 -3 -58 -5 -129 -5 l-129 0 -6 30 c-3 17 -36 172
-74 345 -39 173 -67 318 -63 322 8 9 239 43 246 36 3 -3 22 -71 43 -151 20
-80 40 -146 45 -146 69 -9 70 -3 18 174 -21 72 -37 132 -35 133 2 4 155 18
221 21 30 1 33 -2 61 -76z"/>
</g>
</svg>
